<svg width="16" height="16" viewBox="0 0 16 16" fill="none" xmlns="http://www.w3.org/2000/svg">
<path d="M11.8152 14.645C11.8027 14.72 11.7273 14.7388 11.5891 14.7012C11.4635 14.6762 11.3504 14.5887 11.2499 14.4386C11.1494 14.201 11.0991 13.9821 11.0991 13.782C11.0991 13.5819 11.1054 13.2818 11.118 12.8816C11.1934 12.4439 11.2939 11.8749 11.4195 11.1745C11.5577 10.4617 11.7147 9.66753 11.8906 8.7921C12.079 7.90417 12.28 6.97872 12.4936 6.01575C12.6444 5.5155 12.7637 5.05903 12.8516 4.64633C12.9521 4.22112 13.0275 3.8772 13.0778 3.61458C13.128 3.35195 13.1532 3.22063 13.1532 3.22063C13.1532 3.18312 13.1155 3.20187 13.0401 3.27691C12.9773 3.33944 12.9145 3.41448 12.8516 3.50202C12.7888 3.58956 12.7637 3.65835 12.7763 3.70837C12.7763 3.70837 12.7323 3.7709 12.6444 3.89596C12.5564 4.02102 12.4434 4.18986 12.3052 4.40246C12.1795 4.52752 12.0288 4.77764 11.8529 5.15283C11.677 5.52801 11.4823 5.87818 11.2687 6.20334C11.0677 6.57852 10.8542 6.98497 10.628 7.42269C10.4019 7.84789 10.2009 8.20432 10.025 8.49196C9.91197 8.65454 9.79891 8.84213 9.68584 9.05473C9.57278 9.26734 9.50368 9.4049 9.47856 9.46743C9.42831 9.605 9.34037 9.77383 9.21474 9.97393C9.08912 10.1615 8.95093 10.3491 8.80017 10.5367C8.7248 10.6493 8.64942 10.7681 8.57405 10.8931C8.49867 11.0057 8.43586 11.1057 8.3856 11.1933C8.34792 11.2683 8.32907 11.3058 8.32907 11.3058C8.32907 11.3433 8.26626 11.4559 8.14063 11.6435C8.02757 11.8311 7.8831 12.0374 7.70722 12.2625C7.5439 12.4877 7.38687 12.6815 7.23612 12.8441C6.79642 13.3068 6.44467 13.5819 6.18085 13.6695C5.91703 13.7445 5.62181 13.632 5.29518 13.3318C5.13186 13.1317 5.01252 12.9066 4.93714 12.6565C4.86177 12.3939 4.83036 12.075 4.84292 11.6998C4.85548 11.3121 4.89945 10.8306 4.97483 10.2553C5.06277 9.81761 5.14443 9.37989 5.2198 8.94218C5.29518 8.49196 5.36427 8.073 5.42709 7.68531C5.50246 7.28512 5.56528 6.94745 5.61553 6.67232C5.67834 6.39718 5.72859 6.21585 5.76628 6.1283C5.79141 5.87818 5.78512 5.74061 5.74744 5.7156C5.70975 5.69059 5.63437 5.76563 5.52131 5.94071C5.47106 6.02825 5.33915 6.24711 5.12558 6.59728C4.91202 6.93495 4.66076 7.3539 4.37182 7.85415C4.09544 8.35439 3.81906 8.89841 3.54268 9.48619C3.02761 10.4367 2.60048 11.2245 2.26129 11.8498C1.93466 12.4626 1.67084 12.9504 1.46984 13.3131C1.2814 13.6757 1.14321 13.9446 1.05527 14.1197C0.967328 14.2948 0.904515 14.4136 0.866827 14.4761C0.829138 14.5387 0.797732 14.5824 0.772606 14.6074C0.659542 14.6074 0.540196 14.5574 0.414569 14.4574C0.301505 14.3698 0.182159 14.2635 0.0565321 14.1385C0.018844 14.0509 0 13.9634 0 13.8758C0.0125627 13.7883 0.0565321 13.6632 0.131908 13.5007C0.207285 13.3256 0.320349 13.0629 0.471101 12.7128C0.634417 12.3876 0.785169 12.1062 0.923359 11.8686C1.06155 11.6185 1.16833 11.4684 1.24371 11.4184C1.30652 11.3183 1.36305 11.2183 1.4133 11.1182C1.46355 11.0182 1.49496 10.8994 1.50752 10.7618C1.57034 10.6868 1.66456 10.5367 1.79019 10.3116C1.92837 10.074 2.06656 9.81761 2.20475 9.54247C2.30526 9.37989 2.43088 9.16729 2.58164 8.90466C2.74495 8.64203 2.91455 8.35439 3.09043 8.04174C3.2663 7.71658 3.42334 7.41018 3.56153 7.12254C4.13941 6.13456 4.62936 5.3029 5.03136 4.62757C5.43337 3.93974 5.73487 3.50202 5.93588 3.31443C5.99869 3.2519 6.0615 3.16436 6.12432 3.0518C6.19969 2.93925 6.23738 2.8392 6.23738 2.75165C6.23738 2.48903 6.28763 2.25141 6.38813 2.03881C6.5012 1.8137 6.61426 1.71365 6.72733 1.73866C6.85295 1.73866 6.96602 1.75117 7.06652 1.77618C7.16702 1.80119 7.27381 1.88248 7.38687 2.02005C7.48737 2.17012 7.57531 2.32019 7.65069 2.47027C7.72606 2.62034 7.71978 2.92049 7.63184 3.37071C7.63184 3.54579 7.613 3.74589 7.57531 3.971C7.53762 4.1836 7.49993 4.3837 7.46224 4.57129C7.43712 4.74638 7.41828 4.88395 7.40571 4.984C7.2424 5.47173 7.09165 6.022 6.95346 6.6348C6.81527 7.23509 6.68964 7.84789 6.57657 8.4732C6.46351 9.086 6.36929 9.66128 6.29391 10.199C6.21854 10.7243 6.16829 11.162 6.14316 11.5122C6.1306 11.8498 6.14316 12.0437 6.18085 12.0937C6.26879 12.1437 6.34417 12.15 6.40698 12.1125C6.46979 12.075 6.57658 11.9124 6.72733 11.6247C6.81527 11.4747 6.93461 11.2933 7.08536 11.0807C7.24868 10.8556 7.40571 10.6493 7.55647 10.4617C7.65697 10.2866 7.814 10.024 8.02757 9.67378C8.24113 9.32361 8.51123 8.87339 8.83786 8.32313C9.17706 7.77286 9.57906 7.10378 10.0439 6.3159C10.5213 5.5155 11.0615 4.59005 11.6645 3.53954C11.9534 3.10183 12.2235 2.67662 12.4748 2.26392C12.7386 1.83871 12.9521 1.56358 13.1155 1.43851C13.2913 1.27593 13.4735 1.23842 13.6619 1.32596C13.8504 1.401 14.0137 1.56358 14.1519 1.8137C14.3026 2.06382 14.3843 2.37647 14.3969 2.75165C14.4094 2.92674 14.3843 3.20813 14.3215 3.59582C14.2712 3.98351 14.1896 4.42747 14.0765 4.92772C13.9634 5.41546 13.819 5.92195 13.6431 6.44721C13.6054 6.65981 13.5426 6.92869 13.4547 7.25385C13.3793 7.56651 13.2913 7.89166 13.1908 8.22933C13.0903 8.56699 12.9898 8.8859 12.8893 9.18605C12.8265 9.59875 12.7511 10.0052 12.6632 10.4054C12.5878 10.8056 12.5627 11.0745 12.5878 11.212C12.4748 11.4121 12.3994 11.6998 12.3617 12.075C12.324 12.4501 12.3052 12.8378 12.3052 13.238C12.2549 13.7258 12.2172 14.0697 12.1921 14.2698C12.167 14.4699 12.123 14.5637 12.0602 14.5512C11.8969 14.5011 11.8152 14.5324 11.8152 14.645Z" fill="#212843"/>
<path d="M15.0336 14.0555C14.7312 14.1785 14.4765 14.24 14.2695 14.24C14.0785 14.2224 13.8636 14.117 13.6248 13.9237C13.3223 13.6073 13.2189 13.291 13.3144 12.9746C13.4258 12.6407 13.6885 12.3156 14.1024 11.9993C14.3889 11.8059 14.5959 11.7005 14.7232 11.6829C14.8665 11.6654 15.0814 11.7269 15.3679 11.8675C15.8455 12.2014 16.0524 12.5704 15.9888 12.9746C15.941 13.3789 15.6226 13.7391 15.0336 14.0555Z" fill="#0034FF"/>
</svg>
