<svg width="720" height="99" viewBox="0 0 720 99" fill="none" xmlns="http://www.w3.org/2000/svg">
<path d="M86.4436 94.3571C86.3564 94.8807 85.8327 95.0116 84.8727 94.7498C84 94.5753 83.2146 93.9644 82.5164 92.9171C81.8182 91.2589 81.4691 89.7317 81.4691 88.3353C81.4691 86.9389 81.5127 84.8444 81.6 82.0516C82.1237 78.9971 82.8218 75.0262 83.6946 70.1389C84.6546 65.1644 85.7455 59.6226 86.9673 53.5135C88.2764 47.3171 89.6727 40.8589 91.1564 34.1389C92.2037 30.648 93.0327 27.4626 93.6437 24.5826C94.3418 21.6153 94.8655 19.2153 95.2146 17.3826C95.5637 15.5498 95.7382 14.6335 95.7382 14.6335C95.7382 14.3716 95.4764 14.5026 94.9527 15.0262C94.5164 15.4625 94.08 15.9862 93.6437 16.5971C93.2073 17.208 93.0327 17.688 93.12 18.0371C93.12 18.0371 92.8146 18.4735 92.2037 19.3462C91.5927 20.2189 90.8073 21.3971 89.8473 22.8807C88.9746 23.7535 87.9273 25.4989 86.7055 28.1171C85.4837 30.7353 84.1309 33.1789 82.6473 35.448C81.2509 38.0662 79.7673 40.9026 78.1964 43.9571C76.6255 46.9244 75.2291 49.4116 74.0073 51.4189C73.2218 52.5535 72.4364 53.8626 71.6509 55.3462C70.8655 56.8298 70.3855 57.7898 70.2109 58.2262C69.8618 59.1862 69.2509 60.3644 68.3782 61.7607C67.5055 63.0698 66.5455 64.3789 65.4982 65.688C64.9746 66.4735 64.4509 67.3026 63.9273 68.1753C63.4037 68.9607 62.9673 69.6589 62.6182 70.2698C62.3564 70.7935 62.2255 71.0553 62.2255 71.0553C62.2255 71.3171 61.7891 72.1026 60.9164 73.4117C60.1309 74.7207 59.1273 76.1607 57.9055 77.7316C56.7709 79.3026 55.68 80.6553 54.6327 81.7898C51.5782 85.0189 49.1346 86.9389 47.3018 87.5498C45.4691 88.0735 43.4182 87.288 41.1491 85.1935C40.0146 83.7971 39.1855 82.2262 38.6618 80.4807C38.1382 78.648 37.92 76.4226 38.0073 73.8044C38.0946 71.0989 38.4 67.7389 38.9236 63.7244C39.5346 60.6698 40.1018 57.6153 40.6255 54.5607C41.1491 51.4189 41.6291 48.4953 42.0655 45.7898C42.5891 42.9971 43.0255 40.6407 43.3746 38.7207C43.8109 36.8007 44.16 35.5353 44.4218 34.9244C44.5964 33.1789 44.5527 32.2189 44.2909 32.0444C44.0291 31.8698 43.5055 32.3935 42.72 33.6153C42.3709 34.2262 41.4546 35.7535 39.9709 38.1971C38.4873 40.5535 36.7418 43.4771 34.7346 46.968C32.8146 50.4589 30.8946 54.2553 28.9746 58.3571C25.3964 64.9898 22.4291 70.488 20.0727 74.8516C17.8036 79.128 15.9709 82.5316 14.5746 85.0626C13.2655 87.5935 12.3055 89.4698 11.6946 90.6916C11.0836 91.9135 10.6473 92.7426 10.3855 93.1789C10.1236 93.6153 9.90547 93.9207 9.73092 94.0953C8.94547 94.0953 8.11637 93.7462 7.24365 93.048C6.45819 92.4371 5.6291 91.6953 4.75637 90.8226C4.49456 90.2116 4.36365 89.6007 4.36365 88.9898C4.45092 88.3789 4.75637 87.5062 5.28001 86.3716C5.80365 85.1498 6.5891 83.3171 7.63638 80.8735C8.77092 78.6044 9.81819 76.6407 10.7782 74.9826C11.7382 73.2371 12.48 72.1898 13.0036 71.8407C13.44 71.1426 13.8327 70.4444 14.1818 69.7462C14.5309 69.048 14.7491 68.2189 14.8364 67.2589C15.2727 66.7353 15.9273 65.688 16.8 64.1171C17.76 62.4589 18.72 60.6698 19.68 58.7498C20.3782 57.6153 21.2509 56.1316 22.2982 54.2989C23.4327 52.4662 24.6109 50.4589 25.8327 48.2771C27.0546 46.008 28.1455 43.8698 29.1055 41.8626C33.12 34.968 36.5237 29.1644 39.3164 24.4516C42.1091 19.6516 44.2036 16.5971 45.6 15.288C46.0364 14.8516 46.4727 14.2407 46.9091 13.4553C47.4327 12.6698 47.6946 11.9716 47.6946 11.3607C47.6946 9.528 48.0437 7.86982 48.7418 6.38619C49.5273 4.81528 50.3127 4.1171 51.0982 4.29164C51.9709 4.29164 52.7564 4.37891 53.4546 4.55346C54.1527 4.728 54.8946 5.29528 55.68 6.25528C56.3782 7.30255 56.9891 8.34982 57.5127 9.3971C58.0364 10.4444 57.9927 12.5389 57.3818 15.6807C57.3818 16.9025 57.2509 18.2989 56.9891 19.8698C56.7273 21.3535 56.4655 22.7498 56.2036 24.0589C56.0291 25.2807 55.8982 26.2407 55.8109 26.9389C54.6764 30.3426 53.6291 34.1826 52.6691 38.4589C51.7091 42.648 50.8364 46.9244 50.0509 51.288C49.2655 55.5644 48.6109 59.5789 48.0873 63.3316C47.5636 66.9971 47.2146 70.0516 47.04 72.4953C46.9527 74.8516 47.04 76.2044 47.3018 76.5535C47.9127 76.9026 48.4364 76.9462 48.8727 76.6844C49.3091 76.4226 50.0509 75.288 51.0982 73.2807C51.7091 72.2335 52.5382 70.968 53.5855 69.4844C54.72 67.9135 55.8109 66.4735 56.8582 65.1644C57.5564 63.9426 58.6473 62.1098 60.1309 59.6662C61.6146 57.2226 63.4909 54.0807 65.76 50.2407C68.1164 46.4007 70.9091 41.7316 74.1382 36.2335C77.4546 30.648 81.2073 24.1898 85.3964 16.8589C87.4037 13.8044 89.28 10.8371 91.0255 7.95709C92.8582 4.98982 94.3418 3.06982 95.4764 2.1971C96.6982 1.06255 97.9637 0.80073 99.2728 1.41164C100.582 1.93528 101.716 3.06982 102.676 4.81528C103.724 6.56073 104.291 8.74255 104.378 11.3607C104.465 12.5826 104.291 14.5462 103.855 17.2516C103.505 19.9571 102.938 23.0553 102.153 26.5462C101.367 29.9498 100.364 33.4844 99.1418 37.1498C98.88 38.6335 98.4437 40.5098 97.8327 42.7789C97.3091 44.9607 96.6982 47.2298 96 49.5862C95.3018 51.9426 94.6037 54.168 93.9055 56.2626C93.4691 59.1426 92.9455 61.9789 92.3346 64.7716C91.8109 67.5644 91.6364 69.4407 91.8109 70.4007C91.0255 71.7971 90.5018 73.8044 90.24 76.4226C89.9782 79.0407 89.8473 81.7462 89.8473 84.5389C89.4982 87.9426 89.2364 90.3426 89.0618 91.7389C88.8873 93.1353 88.5818 93.7898 88.1455 93.7026C87.0109 93.3535 86.4436 93.5716 86.4436 94.3571Z" fill="#212843"/>
<path d="M97.666 83.3607C97.3169 82.6626 96.8806 82.1389 96.3569 81.7898C95.8333 81.3535 95.5715 80.9607 95.5715 80.6116C95.5715 80.2626 95.5279 79.9135 95.4406 79.5644C95.4406 79.128 95.266 78.7353 94.9169 78.3862C94.4806 77.8626 94.5242 76.6844 95.0479 74.8516C95.5715 72.9316 96.4442 70.6189 97.666 67.9135C98.8879 65.1207 100.328 62.1971 101.986 59.1426C102.684 58.4444 103.382 57.528 104.081 56.3935C104.779 55.2589 105.302 54.5171 105.651 54.168C105.651 53.8189 105.782 53.5135 106.044 53.2516C106.306 52.9026 106.611 52.728 106.961 52.728V51.9426C106.961 51.5062 107.353 50.7644 108.139 49.7171C109.011 48.6698 110.059 47.5353 111.281 46.3135C112.502 45.0044 113.768 43.7826 115.077 42.648C116.386 41.4262 117.477 40.5535 118.35 40.0298C120.182 38.808 122.059 38.0662 123.979 37.8044C125.986 37.5425 127.688 37.9789 129.084 39.1135C129.346 39.3753 129.782 39.8116 130.393 40.4226C131.004 41.0335 131.702 41.7316 132.488 42.5171C133.361 43.2153 134.233 43.9571 135.106 44.7425L139.95 49.0626L137.593 55.608C136.459 59.0989 136.153 62.1535 136.677 64.7716C137.288 67.3898 138.161 69.6589 139.295 71.5789C139.731 72.5389 140.604 73.4553 141.913 74.328C143.31 75.2007 144.619 75.7244 145.841 75.8989C146.539 75.9862 147.193 76.248 147.804 76.6844C148.415 77.1207 148.721 77.8189 148.721 78.7789C148.721 79.6516 148.546 80.3498 148.197 80.8735C147.848 81.3971 147.237 81.7462 146.364 81.9207C143.484 82.2698 140.779 81.5716 138.248 79.8262C135.804 78.0807 133.535 75.2007 131.441 71.1862C131.091 70.6626 130.611 69.7026 130.001 68.3062C129.477 66.8226 129.171 65.8626 129.084 65.4262C128.735 65.8626 128.081 66.6916 127.121 67.9135C126.161 69.048 125.419 69.8771 124.895 70.4007C118.699 76.6844 113.331 80.9171 108.793 83.0989C104.342 85.1935 100.633 85.2807 97.666 83.3607ZM102.379 76.0298C102.379 76.6407 103.295 76.6407 105.128 76.0298C107.048 75.3316 109.099 74.1098 111.281 72.3644C114.248 69.8335 117.215 67.0407 120.182 63.9862C123.237 60.9316 125.681 58.0953 127.513 55.4771L130.393 50.7644C129.521 48.7571 128.561 47.4044 127.513 46.7062C126.553 45.9207 125.724 45.528 125.026 45.528C123.891 45.528 122.19 46.5753 119.921 48.6698C117.739 50.7644 115.382 53.5571 112.851 57.048C110.321 60.5389 107.921 64.3789 105.651 68.568C104.779 70.3135 103.993 72.0153 103.295 73.6735C102.684 75.2444 102.379 76.0298 102.379 76.0298Z" fill="#212843"/>
<path d="M145.909 83.4916C145.124 82.8807 144.556 82.2698 144.207 81.6589C143.945 81.048 143.945 79.8698 144.207 78.1244C144.469 75.6807 144.818 73.5425 145.255 71.7098C145.691 69.7898 146.215 67.608 146.825 65.1644C147 64.1171 147.48 62.328 148.265 59.7971C149.138 57.2662 150.185 54.5171 151.407 51.5498C152.629 48.5826 153.851 45.7898 155.073 43.1716C156.295 40.4662 157.342 38.4589 158.215 37.1498C158.913 36.6262 159.742 36.408 160.702 36.4953C161.749 36.5826 162.622 36.9753 163.32 37.6735C164.28 38.4589 164.411 39.8553 163.713 41.8626C163.102 43.7826 161.793 46.8371 159.785 51.0262C158.738 53.3826 157.953 55.1716 157.429 56.3935C156.905 57.528 156.687 58.2262 156.775 58.488C156.862 58.6626 157.255 58.5316 157.953 58.0953C158.476 57.1353 159.436 56.0444 160.833 54.8226C162.229 53.5135 163.713 52.248 165.284 51.0262C166.855 49.8044 168.338 48.7135 169.735 47.7535C171.131 46.7935 172.091 46.1826 172.615 45.9207C173.313 45.4844 174.098 45.1353 174.971 44.8735C175.931 44.5244 176.585 44.2626 176.935 44.088C178.942 43.128 180.993 42.7789 183.087 43.0407C185.182 43.3026 186.491 44.088 187.015 45.3971C187.102 46.0953 187.364 46.6189 187.8 46.968C188.324 47.3171 188.585 47.4916 188.585 47.4916C188.935 47.4916 189.109 47.6226 189.109 47.8844C189.196 48.1462 189.24 48.2771 189.24 48.2771C189.24 48.888 188.76 49.2807 187.8 49.4553C186.927 49.5426 185.793 49.6298 184.396 49.7171C183.262 49.8044 182.258 50.0226 181.385 50.3716C180.513 50.7207 179.465 51.1571 178.244 51.6807C174.927 53.6007 171.742 55.4771 168.687 57.3098C165.72 59.1426 162.84 61.5862 160.047 64.6407C159.436 65.3389 158.825 66.168 158.215 67.128C157.604 68.088 156.949 69.1353 156.251 70.2698C155.815 70.7062 155.378 71.6662 154.942 73.1498C154.505 74.6335 154.113 76.0735 153.764 77.4698C153.502 78.7789 153.371 79.5644 153.371 79.8262C153.371 79.8262 153.24 80.2626 152.978 81.1353C152.716 81.9207 152.28 82.7062 151.669 83.4916C150.622 84.888 149.749 85.5862 149.051 85.5862C148.353 85.5862 147.305 84.888 145.909 83.4916Z" fill="#212843"/>
<path d="M186.668 84.0153C185.359 83.8407 184.224 82.9244 183.264 81.2662C182.391 79.5207 181.868 77.9498 181.693 76.5535C181.781 75.8553 181.868 74.8516 181.955 73.5425C182.13 72.2335 182.304 70.8807 182.479 69.4844C182.828 67.8262 183.308 65.8189 183.919 63.4626C184.53 61.0189 185.141 58.5753 185.751 56.1316C186.45 53.688 187.061 51.5935 187.584 49.848C188.108 48.1026 188.457 47.0553 188.631 46.7062C189.068 46.008 189.766 45.8335 190.726 46.1826C191.686 46.5316 192.471 47.0553 193.082 47.7535C193.606 48.4516 193.911 49.2807 193.999 50.2407C194.173 51.2007 194.042 52.5971 193.606 54.4298C193.257 56.2626 192.559 58.968 191.511 62.5462C190.551 66.0371 189.81 68.8735 189.286 71.0553C188.85 73.1498 188.675 75.3753 188.762 77.7316C188.413 80.6989 188.151 82.5316 187.977 83.2298C187.802 83.8407 187.366 84.1026 186.668 84.0153ZM201.722 31.7826C201.373 32.0444 201.024 32.1753 200.675 32.1753C200.413 32.088 199.933 31.8262 199.235 31.3898C198.624 31.3026 197.839 30.9098 196.879 30.2116C196.006 29.4262 195.221 28.6407 194.522 27.8553C193.911 26.9826 193.606 26.4589 193.606 26.2844C193.519 25.4116 193.562 24.3207 193.737 23.0116C193.999 21.6153 194.479 20.3935 195.177 19.3462C195.875 18.2116 196.879 17.6007 198.188 17.5135C198.537 17.5135 198.842 17.5571 199.104 17.6444C199.366 17.7316 200.151 18.0371 201.461 18.5607C202.159 19.8698 202.857 21.3535 203.555 23.0116C204.253 24.5826 204.559 26.1535 204.471 27.7244C204.384 29.208 203.468 30.5607 201.722 31.7826Z" fill="#212843"/>
<path d="M234.649 86.5026C233.776 86.5026 232.86 86.0226 231.9 85.0626C231.027 84.1026 230.242 82.9244 229.544 81.528C228.933 80.0444 228.627 78.648 228.627 77.3389C228.627 76.0298 228.933 73.5862 229.544 70.008C230.242 66.4298 231.071 62.808 232.031 59.1426C232.729 56.8735 232.947 55.5644 232.685 55.2153C232.424 54.8662 231.245 55.3462 229.151 56.6553C227.929 57.2662 226.838 57.9207 225.878 58.6189C224.918 59.2298 224.089 59.928 223.391 60.7135C222.955 61.0626 222.3 61.6298 221.427 62.4153C220.555 63.2007 219.638 63.9426 218.678 64.6407C217.544 65.5135 216.104 66.7353 214.358 68.3062C212.613 69.8771 210.867 71.448 209.122 73.0189C207.464 74.5898 206.198 75.8116 205.325 76.6844C205.151 77.0335 204.889 77.3389 204.54 77.6007C204.191 77.8626 203.798 78.0371 203.362 78.1244C202.925 78.1244 202.445 78.0371 201.922 77.8626C200.962 77.6007 200.045 77.0335 199.173 76.1607C198.387 75.288 197.995 74.2844 197.995 73.1498C197.995 72.2771 198.344 70.7935 199.042 68.6989C199.74 66.5171 200.656 63.8989 201.791 60.8444C203.013 57.7898 204.409 54.5607 205.98 51.1571C206.242 50.7207 206.46 50.1971 206.635 49.5862C206.809 48.888 206.94 48.1462 207.027 47.3607C207.202 46.5753 207.289 45.8335 207.289 45.1353C207.289 44.6989 207.333 44.2626 207.42 43.8262C207.595 43.3026 207.769 42.8226 207.944 42.3862C208.205 41.8626 208.424 41.5135 208.598 41.3389C208.947 40.6407 209.558 40.4662 210.431 40.8153C211.304 41.0771 212.045 41.688 212.656 42.648C213.965 43.8698 214.62 45.3971 214.62 47.2298C214.707 49.0626 214.271 51.3316 213.311 54.0371C212.962 54.648 212.656 55.2589 212.395 55.8698C212.22 56.3935 212.045 56.8735 211.871 57.3098C211.696 57.6589 211.565 57.9644 211.478 58.2262C211.391 58.4007 211.347 58.488 211.347 58.488C211.696 58.488 212.482 58.0953 213.704 57.3098C214.925 56.5244 216.365 55.6516 218.024 54.6916C219.333 53.7316 220.467 52.8589 221.427 52.0735C222.475 51.2007 223.347 50.5462 224.045 50.1098C224.744 49.5862 225.18 49.3244 225.355 49.3244C225.704 49.3244 226.14 49.1935 226.664 48.9316C227.187 48.6698 227.624 48.3644 227.973 48.0153C228.322 47.6662 228.584 47.4916 228.758 47.4916C229.02 47.4044 229.151 47.3607 229.151 47.3607C229.151 47.3607 229.325 47.3607 229.675 47.3607C230.024 47.2735 230.373 47.0553 230.722 46.7062C231.42 46.1826 232.336 46.0516 233.471 46.3135C234.605 46.488 235.653 46.9244 236.613 47.6226C237.573 48.3207 238.053 49.1062 238.053 49.9789C238.053 50.328 238.14 50.6335 238.315 50.8953C238.576 51.0698 238.707 51.1571 238.707 51.1571C239.405 51.1571 239.842 52.248 240.016 54.4298C240.278 56.6116 240.06 58.7062 239.362 60.7135C239.362 62.0226 239.1 63.5935 238.576 65.4262C238.14 67.2589 237.747 69.0044 237.398 70.6626C236.7 72.8444 236.22 74.7644 235.958 76.4226C235.696 78.0807 235.653 79.4771 235.827 80.6116C236.002 81.7462 236.307 82.6626 236.744 83.3607C237.093 83.9716 237.093 84.6698 236.744 85.4553C236.395 86.1535 235.696 86.5026 234.649 86.5026Z" fill="#212843"/>
<path d="M250.646 83.7535C249.598 83.928 248.464 83.7535 247.242 83.2298C246.02 82.7062 244.929 81.9644 243.969 81.0044C243.096 80.0444 242.529 79.0407 242.267 77.9935C241.918 76.1607 242.136 73.8916 242.922 71.1862C243.795 68.3935 245.016 65.4698 246.587 62.4153C248.246 59.2735 250.078 56.2626 252.086 53.3826C254.18 50.5026 256.318 48.0153 258.5 45.9207C260.769 43.7389 262.864 42.2553 264.784 41.4698C265.744 40.8589 266.486 40.4662 267.009 40.2916C267.62 40.0298 268.231 39.9862 268.842 40.1607C269.54 40.3353 270.544 40.7716 271.853 41.4698C273.075 41.8189 273.991 42.2116 274.602 42.648C275.213 43.0844 275.998 43.9571 276.958 45.2662C277.656 46.5753 278.18 47.8844 278.529 49.1935C278.878 50.5026 279.184 51.9862 279.446 53.6444C280.144 55.8262 280.406 57.2662 280.231 57.9644C280.056 58.5753 279.795 59.0553 279.446 59.4044C278.747 60.2771 278.573 60.7135 278.922 60.7135C278.922 60.7135 278.878 60.888 278.791 61.2371C278.791 61.4989 278.617 61.9353 278.267 62.5462C277.656 64.4662 277.176 66.4735 276.827 68.568C276.566 70.5753 276.609 72.2335 276.958 73.5425C277.656 75.4626 278.922 76.5971 280.755 76.9462C282.587 77.2953 284.464 76.5098 286.384 74.5898C287.344 73.8916 288.26 73.2807 289.133 72.7571C290.006 72.1462 290.442 72.1898 290.442 72.888C290.442 72.888 290.573 73.0189 290.835 73.2807C291.097 73.4553 291.402 73.5425 291.751 73.5425C292.187 73.5425 292.449 73.7171 292.536 74.0662C292.711 74.4153 292.711 74.8953 292.536 75.5062C292.449 76.0298 292.187 76.6407 291.751 77.3389C290.442 78.648 289.787 79.5207 289.787 79.9571C289.787 79.9571 289.613 80.1316 289.264 80.4807C289.002 80.7426 288.522 81.1789 287.824 81.7898C286.253 82.7498 284.246 83.2298 281.802 83.2298C279.446 83.2298 277.613 82.7498 276.304 81.7898C274.995 80.8298 273.773 79.5207 272.638 77.8626C271.591 76.2044 270.893 74.7644 270.544 73.5425L269.889 72.2335L266.093 74.7207C265.133 75.6807 264.086 76.5971 262.951 77.4698C261.904 78.3426 261.206 78.9535 260.857 79.3026C260.595 79.6516 260.289 79.9571 259.94 80.2189C259.678 80.4807 259.373 80.6116 259.024 80.6116C258.675 80.6116 258.369 80.6116 258.107 80.6116C257.846 80.6116 257.715 80.6116 257.715 80.6116C257.715 80.9607 257.278 81.3971 256.406 81.9207C255.62 82.4444 254.66 82.8807 253.526 83.2298C252.478 83.5789 251.518 83.7535 250.646 83.7535ZM249.337 76.6844C249.86 76.6844 250.777 76.2916 252.086 75.5062C253.482 74.6335 255.009 73.6298 256.667 72.4953C258.413 71.3607 259.94 70.2262 261.249 69.0916C262.646 67.9571 263.606 67.0844 264.129 66.4735C264.478 66.1244 265.046 65.5571 265.831 64.7716C266.616 63.8989 267.315 63.1571 267.926 62.5462C269.933 60.2771 271.329 57.7898 272.115 55.0844C272.9 52.2916 272.813 50.1098 271.853 48.5389C271.504 47.5789 271.067 47.0553 270.544 46.968C270.02 46.8807 268.929 47.1862 267.271 47.8844C266.224 48.4953 264.915 49.6735 263.344 51.4189C261.86 53.0771 260.246 55.0407 258.5 57.3098C256.842 59.4916 255.271 61.7607 253.787 64.1171C252.304 66.4735 251.082 68.6553 250.122 70.6626C249.162 72.6698 248.682 74.2407 248.682 75.3753C248.682 75.7244 248.769 76.0298 248.944 76.2916C249.206 76.5535 249.337 76.6844 249.337 76.6844Z" fill="#212843"/>
<path d="M401.653 94.3571C401.566 94.8807 401.042 95.0116 400.082 94.7498C399.21 94.5753 398.424 93.9644 397.726 92.9171C397.028 91.2589 396.679 89.7317 396.679 88.3353C396.679 86.9389 396.722 84.8444 396.81 82.0516C397.333 78.9971 398.032 75.0262 398.904 70.1389C399.864 65.1644 400.955 59.6226 402.177 53.5135C403.486 47.3171 404.882 40.8589 406.366 34.1389C407.413 30.648 408.242 27.4626 408.853 24.5826C409.552 21.6153 410.075 19.2153 410.424 17.3826C410.773 15.5498 410.948 14.6335 410.948 14.6335C410.948 14.3716 410.686 14.5026 410.162 15.0262C409.726 15.4625 409.29 15.9862 408.853 16.5971C408.417 17.208 408.242 17.688 408.33 18.0371C408.33 18.0371 408.024 18.4735 407.413 19.3462C406.802 20.2189 406.017 21.3971 405.057 22.8807C404.184 23.7535 403.137 25.4989 401.915 28.1171C400.693 30.7353 399.341 33.1789 397.857 35.448C396.461 38.0662 394.977 40.9026 393.406 43.9571C391.835 46.9244 390.439 49.4116 389.217 51.4189C388.432 52.5535 387.646 53.8626 386.861 55.3462C386.075 56.8298 385.595 57.7898 385.421 58.2262C385.072 59.1862 384.461 60.3644 383.588 61.7607C382.715 63.0698 381.755 64.3789 380.708 65.688C380.184 66.4735 379.661 67.3026 379.137 68.1753C378.613 68.9607 378.177 69.6589 377.828 70.2698C377.566 70.7935 377.435 71.0553 377.435 71.0553C377.435 71.3171 376.999 72.1026 376.126 73.4117C375.341 74.7207 374.337 76.1607 373.115 77.7316C371.981 79.3026 370.89 80.6553 369.842 81.7898C366.788 85.0189 364.344 86.9389 362.512 87.5498C360.679 88.0735 358.628 87.288 356.359 85.1935C355.224 83.7971 354.395 82.2262 353.872 80.4807C353.348 78.648 353.13 76.4226 353.217 73.8044C353.304 71.0989 353.61 67.7389 354.133 63.7244C354.744 60.6698 355.311 57.6153 355.835 54.5607C356.359 51.4189 356.839 48.4953 357.275 45.7898C357.799 42.9971 358.235 40.6407 358.584 38.7207C359.021 36.8007 359.37 35.5353 359.632 34.9244C359.806 33.1789 359.762 32.2189 359.501 32.0444C359.239 31.8698 358.715 32.3935 357.93 33.6153C357.581 34.2262 356.664 35.7535 355.181 38.1971C353.697 40.5535 351.952 43.4771 349.944 46.968C348.024 50.4589 346.104 54.2553 344.184 58.3571C340.606 64.9898 337.639 70.488 335.282 74.8516C333.013 79.128 331.181 82.5316 329.784 85.0626C328.475 87.5935 327.515 89.4698 326.904 90.6916C326.293 91.9135 325.857 92.7426 325.595 93.1789C325.333 93.6153 325.115 93.9207 324.941 94.0953C324.155 94.0953 323.326 93.7462 322.453 93.048C321.668 92.4371 320.839 91.6953 319.966 90.8226C319.704 90.2116 319.573 89.6007 319.573 88.9898C319.661 88.3789 319.966 87.5062 320.49 86.3716C321.013 85.1498 321.799 83.3171 322.846 80.8735C323.981 78.6044 325.028 76.6407 325.988 74.9826C326.948 73.2371 327.69 72.1898 328.213 71.8407C328.65 71.1426 329.042 70.4444 329.392 69.7462C329.741 69.048 329.959 68.2189 330.046 67.2589C330.482 66.7353 331.137 65.688 332.01 64.1171C332.97 62.4589 333.93 60.6698 334.89 58.7498C335.588 57.6153 336.461 56.1316 337.508 54.2989C338.642 52.4662 339.821 50.4589 341.042 48.2771C342.264 46.008 343.355 43.8698 344.315 41.8626C348.33 34.968 351.733 29.1644 354.526 24.4516C357.319 19.6516 359.413 16.5971 360.81 15.288C361.246 14.8516 361.682 14.2407 362.119 13.4553C362.642 12.6698 362.904 11.9716 362.904 11.3607C362.904 9.528 363.253 7.86982 363.952 6.38619C364.737 4.81528 365.522 4.1171 366.308 4.29164C367.181 4.29164 367.966 4.37891 368.664 4.55346C369.362 4.728 370.104 5.29528 370.89 6.25528C371.588 7.30255 372.199 8.34982 372.722 9.3971C373.246 10.4444 373.202 12.5389 372.592 15.6807C372.592 16.9025 372.461 18.2989 372.199 19.8698C371.937 21.3535 371.675 22.7498 371.413 24.0589C371.239 25.2807 371.108 26.2407 371.021 26.9389C369.886 30.3426 368.839 34.1826 367.879 38.4589C366.919 42.648 366.046 46.9244 365.261 51.288C364.475 55.5644 363.821 59.5789 363.297 63.3316C362.773 66.9971 362.424 70.0516 362.25 72.4953C362.162 74.8516 362.25 76.2044 362.512 76.5535C363.122 76.9026 363.646 76.9462 364.082 76.6844C364.519 76.4226 365.261 75.288 366.308 73.2807C366.919 72.2335 367.748 70.968 368.795 69.4844C369.93 67.9135 371.021 66.4735 372.068 65.1644C372.766 63.9426 373.857 62.1098 375.341 59.6662C376.824 57.2226 378.701 54.0807 380.97 50.2407C383.326 46.4007 386.119 41.7316 389.348 36.2335C392.664 30.648 396.417 24.1898 400.606 16.8589C402.613 13.8044 404.49 10.8371 406.235 7.95709C408.068 4.98982 409.552 3.06982 410.686 2.1971C411.908 1.06255 413.173 0.80073 414.482 1.41164C415.792 1.93528 416.926 3.06982 417.886 4.81528C418.933 6.56073 419.501 8.74255 419.588 11.3607C419.675 12.5826 419.501 14.5462 419.064 17.2516C418.715 19.9571 418.148 23.0553 417.362 26.5462C416.577 29.9498 415.573 33.4844 414.352 37.1498C414.09 38.6335 413.653 40.5098 413.042 42.7789C412.519 44.9607 411.908 47.2298 411.21 49.5862C410.512 51.9426 409.813 54.168 409.115 56.2626C408.679 59.1426 408.155 61.9789 407.544 64.7716C407.021 67.5644 406.846 69.4407 407.021 70.4007C406.235 71.7971 405.712 73.8044 405.45 76.4226C405.188 79.0407 405.057 81.7462 405.057 84.5389C404.708 87.9426 404.446 90.3426 404.272 91.7389C404.097 93.1353 403.792 93.7898 403.355 93.7026C402.221 93.3535 401.653 93.5716 401.653 94.3571Z" fill="#212843"/>
<path d="M412.876 83.3607C412.527 82.6626 412.09 82.1389 411.567 81.7898C411.043 81.3535 410.781 80.9607 410.781 80.6116C410.781 80.2626 410.738 79.9135 410.65 79.5644C410.65 79.128 410.476 78.7353 410.127 78.3862C409.69 77.8626 409.734 76.6844 410.258 74.8516C410.781 72.9316 411.654 70.6189 412.876 67.9135C414.098 65.1207 415.538 62.1971 417.196 59.1426C417.894 58.4444 418.592 57.528 419.29 56.3935C419.988 55.2589 420.512 54.5171 420.861 54.168C420.861 53.8189 420.992 53.5135 421.254 53.2516C421.516 52.9026 421.821 52.728 422.17 52.728V51.9426C422.17 51.5062 422.563 50.7644 423.348 49.7171C424.221 48.6698 425.268 47.5353 426.49 46.3135C427.712 45.0044 428.978 43.7826 430.287 42.648C431.596 41.4262 432.687 40.5535 433.559 40.0298C435.392 38.808 437.268 38.0662 439.188 37.8044C441.196 37.5425 442.898 37.9789 444.294 39.1135C444.556 39.3753 444.992 39.8116 445.603 40.4226C446.214 41.0335 446.912 41.7316 447.698 42.5171C448.57 43.2153 449.443 43.9571 450.316 44.7425L455.159 49.0626L452.803 55.608C451.668 59.0989 451.363 62.1535 451.887 64.7716C452.498 67.3898 453.37 69.6589 454.505 71.5789C454.941 72.5389 455.814 73.4553 457.123 74.328C458.519 75.2007 459.828 75.7244 461.05 75.8989C461.748 75.9862 462.403 76.248 463.014 76.6844C463.625 77.1207 463.93 77.8189 463.93 78.7789C463.93 79.6516 463.756 80.3498 463.407 80.8735C463.058 81.3971 462.447 81.7462 461.574 81.9207C458.694 82.2698 455.988 81.5716 453.458 79.8262C451.014 78.0807 448.745 75.2007 446.65 71.1862C446.301 70.6626 445.821 69.7026 445.21 68.3062C444.687 66.8226 444.381 65.8626 444.294 65.4262C443.945 65.8626 443.29 66.6916 442.33 67.9135C441.37 69.048 440.628 69.8771 440.105 70.4007C433.908 76.6844 428.541 80.9171 424.003 83.0989C419.552 85.1935 415.843 85.2807 412.876 83.3607ZM417.588 76.0298C417.588 76.6407 418.505 76.6407 420.338 76.0298C422.258 75.3316 424.308 74.1098 426.49 72.3644C429.458 69.8335 432.425 67.0407 435.392 63.9862C438.447 60.9316 440.89 58.0953 442.723 55.4771L445.603 50.7644C444.73 48.7571 443.77 47.4044 442.723 46.7062C441.763 45.9207 440.934 45.528 440.236 45.528C439.101 45.528 437.399 46.5753 435.13 48.6698C432.948 50.7644 430.592 53.5571 428.061 57.048C425.53 60.5389 423.13 64.3789 420.861 68.568C419.988 70.3135 419.203 72.0153 418.505 73.6735C417.894 75.2444 417.588 76.0298 417.588 76.0298Z" fill="#212843"/>
<path d="M477.482 84.6698C476.348 85.1935 475.039 85.4116 473.555 85.3244C472.072 85.2371 470.064 84.7571 467.533 83.8844C467.359 83.8844 466.966 83.7098 466.355 83.3607C465.832 83.0116 465.264 82.5753 464.653 82.0516C464.13 81.4407 463.693 80.7862 463.344 80.088C461.948 78.0807 461.381 75.1135 461.642 71.1862C461.904 67.2589 463.126 62.5462 465.308 57.048C465.919 55.7389 466.835 54.0807 468.057 52.0735C469.366 50.0662 470.632 48.2335 471.853 46.5753C473.162 44.8298 474.079 43.8262 474.602 43.5644C474.602 43.5644 475.082 43.3898 476.042 43.0407C477.002 42.6916 478.224 42.1244 479.708 41.3389C480.144 41.1644 480.624 40.9898 481.148 40.8153C481.759 40.6407 482.37 40.5098 482.981 40.4226C483.591 40.3353 484.115 40.3353 484.551 40.4226C486.297 40.5098 488.086 41.1644 489.919 42.3862C491.839 43.5207 493.41 44.8735 494.632 46.4444C495.853 47.928 496.246 49.2371 495.81 50.3716C495.81 50.5462 495.548 50.8953 495.024 51.4189C494.588 51.8553 494.064 52.3353 493.453 52.8589C492.93 53.2953 492.493 53.7316 492.144 54.168C491.708 54.6916 491.097 54.9098 490.311 54.8226C489.613 54.7353 488.959 54.3862 488.348 53.7753C487.824 53.0771 487.519 52.2044 487.432 51.1571C487.257 50.4589 486.602 49.8044 485.468 49.1935C484.421 48.5826 483.897 48.2771 483.897 48.2771C483.199 48.2771 482.195 48.9316 480.886 50.2407C479.664 51.4626 478.442 52.9462 477.221 54.6916C475.65 56.2626 474.297 58.1389 473.162 60.3207C472.028 62.4153 471.112 64.4226 470.413 66.3426C469.802 68.1753 469.366 69.4844 469.104 70.2698C468.755 71.1426 468.711 72.3644 468.973 73.9353C469.235 75.5062 469.541 76.4662 469.89 76.8153C470.239 76.9898 471.112 77.0335 472.508 76.9462C473.992 76.8589 475.737 76.6844 477.744 76.4226C479.751 76.0735 481.715 75.6807 483.635 75.2444C485.555 74.808 487.126 74.328 488.348 73.8044C490.006 72.7571 491.446 72.1462 492.668 71.9716C493.89 71.7971 494.806 71.7971 495.417 71.9716C496.377 72.3207 496.944 72.8007 497.119 73.4117C497.293 74.0226 497.075 74.7207 496.464 75.5062C495.853 76.2044 494.806 76.9462 493.322 77.7316C491.926 78.4298 490.661 79.2153 489.526 80.088C488.479 80.8735 487.955 81.4844 487.955 81.9207C487.606 81.9207 487.213 82.0516 486.777 82.3135C486.428 82.488 486.122 82.5316 485.861 82.4444C485.686 82.4444 484.988 82.5753 483.766 82.8371C482.544 83.0989 481.279 83.4044 479.97 83.7535C478.748 84.1026 477.919 84.408 477.482 84.6698Z" fill="#212843"/>
<path d="M501.707 81.0044C501.096 81.0916 500.441 81.0916 499.743 81.0044C499.132 80.8298 498.521 80.5244 497.91 80.088C497.212 79.3898 496.732 78.8662 496.47 78.5171C496.209 78.0807 496.121 77.4262 496.209 76.5535C496.383 75.6807 496.689 74.328 497.125 72.4953C497.561 71.0989 498.085 69.1789 498.696 66.7353C499.307 64.2044 499.961 61.7171 500.659 59.2735C500.921 57.8771 501.27 56.4371 501.707 54.9535C502.23 53.4698 502.754 52.1171 503.278 50.8953C503.801 49.5862 504.194 48.5826 504.456 47.8844C505.154 45.4407 505.809 43.3026 506.419 41.4698C507.118 39.6371 507.947 37.5426 508.907 35.1862C509.867 32.7426 511.045 29.5135 512.441 25.4989C514.361 20.2625 515.801 16.2916 516.761 13.5862C517.809 10.7935 518.55 8.78619 518.987 7.56437C519.51 6.25528 519.859 5.25164 520.034 4.55346C520.034 3.85528 520.209 3.33164 520.558 2.98255C520.994 2.63346 521.518 2.45891 522.129 2.45891C523.35 2.45891 524.31 3.06982 525.009 4.29164C525.794 5.42619 526.274 6.82255 526.449 8.48073C526.623 10.0516 526.361 11.5353 525.663 12.9316C524.267 16.0735 522.783 19.8262 521.212 24.1898C519.641 28.4662 518.114 32.6989 516.63 36.888C515.147 40.9898 513.75 44.4807 512.441 47.3607C512.441 47.7098 512.31 48.3207 512.049 49.1935C511.787 50.0662 511.481 50.8516 511.132 51.5498C510.783 52.248 510.434 52.9026 510.085 53.5135C509.823 54.1244 509.692 54.4298 509.692 54.4298C509.692 54.7789 509.561 55.4335 509.299 56.3935C509.038 57.3535 508.689 58.5316 508.252 59.928C507.903 60.9753 507.467 62.328 506.943 63.9862C506.507 65.6444 506.201 67.0407 506.027 68.1753C506.463 67.3898 507.379 66.2116 508.776 64.6407C510.172 63.0698 511.481 61.7171 512.703 60.5826C514.099 59.3607 515.67 58.008 517.416 56.5244C519.161 55.0407 520.558 53.9498 521.605 53.2516C522.652 52.5535 523.569 51.9426 524.354 51.4189C525.227 50.808 525.663 50.5026 525.663 50.5026C525.663 50.1535 525.794 49.9789 526.056 49.9789C526.405 49.8916 526.754 49.848 527.103 49.848C527.452 49.848 527.627 49.8044 527.627 49.7171C527.714 49.6298 527.758 49.4116 527.758 49.0626C527.758 48.6262 528.238 48.2335 529.198 47.8844C530.245 47.5353 531.423 47.2735 532.732 47.0989C534.129 46.8371 535.263 46.7062 536.136 46.7062C537.183 46.7062 538.012 46.9244 538.623 47.3607C539.234 47.7971 540.019 48.7571 540.979 50.2407C542.027 51.6371 542.681 53.3389 542.943 55.3462C543.292 57.2662 543.118 59.2735 542.419 61.368C542.419 62.0662 542.289 63.0698 542.027 64.3789C541.852 65.6007 541.765 66.9098 541.765 68.3062L540.979 72.4953H543.074C543.772 72.4953 544.427 72.6262 545.038 72.888C545.649 73.0626 545.954 73.1498 545.954 73.1498C546.303 73.4989 546.652 73.848 547.001 74.1971C547.35 74.4589 547.699 74.5898 548.049 74.5898C549.096 74.5898 549.489 75.0262 549.227 75.8989C548.965 76.6844 548.31 77.4262 547.263 78.1244C545.169 79.5207 543.249 80.2189 541.503 80.2189C539.845 80.2189 538.318 79.5207 536.921 78.1244C535.525 76.6407 534.652 74.9826 534.303 73.1498C533.954 71.3171 534.129 69.0044 534.827 66.2116C535.176 62.3716 535.35 59.5789 535.35 57.8335C535.438 56.0007 535.001 55.0844 534.041 55.0844C533.169 55.0844 531.641 55.6953 529.459 56.9171C527.278 58.0516 524.834 59.6226 522.129 61.6298C519.423 63.6371 516.761 65.8626 514.143 68.3062C511.525 70.7498 509.343 73.2807 507.598 75.8989C506.55 77.208 505.547 78.3862 504.587 79.4335C503.627 80.3935 502.667 80.9171 501.707 81.0044Z" fill="#212843"/>
<path d="M558.373 84.2771C557.675 84.4516 556.758 84.5389 555.624 84.5389C554.489 84.4516 553.486 84.3207 552.613 84.1462C551.828 83.8844 551.435 83.6226 551.435 83.3607C551.435 82.9244 551.217 82.7062 550.78 82.7062C550.78 82.7062 550.562 82.5316 550.126 82.1826C549.777 81.8335 549.209 81.4844 548.424 81.1353C547.638 79.9135 547.246 78.6044 547.246 77.208C547.246 75.7244 547.638 73.4116 548.424 70.2698C548.686 68.088 549.515 65.5571 550.911 62.6771C552.395 59.7098 554.184 56.6989 556.278 53.6444C558.373 50.5898 560.555 47.8407 562.824 45.3971C565.18 42.9535 567.318 41.1644 569.238 40.0298C570.46 38.808 571.944 38.1535 573.689 38.0662C575.435 37.9789 577.093 38.3716 578.664 39.2444C579.537 39.6807 580.409 40.3789 581.282 41.3389C582.155 42.2989 582.984 43.3462 583.769 44.4807C584.555 45.6153 585.209 46.7498 585.733 47.8844C585.995 48.8444 586.126 49.7171 586.126 50.5026C586.213 51.2007 586.213 52.0735 586.126 53.1207C586.126 54.168 585.995 55.7389 585.733 57.8335C585.297 59.4044 584.904 61.3244 584.555 63.5935C584.293 65.8625 584.162 67.8262 584.162 69.4844C583.988 71.1426 584.162 72.3207 584.686 73.0189C585.297 73.7171 586.169 73.7607 587.304 73.1498C588.351 72.6262 589.355 72.408 590.315 72.4953C591.275 72.4953 592.017 72.7571 592.54 73.2807C593.151 73.8044 593.457 74.5898 593.457 75.6371C593.457 76.6844 592.933 77.7753 591.886 78.9098C590.926 79.9571 589.704 80.8735 588.22 81.6589C586.824 82.3571 585.471 82.7062 584.162 82.7062C583.202 82.7062 582.286 82.1389 581.413 81.0044C580.54 79.7826 579.755 78.3426 579.057 76.6844C578.446 74.9389 577.878 73.2807 577.355 71.7098L576.569 68.6989L570.94 74.0662C569.806 75.288 568.671 76.4226 567.537 77.4698C566.489 78.4298 565.835 79.128 565.573 79.5644C565.137 80.3498 564.307 81.1353 563.086 81.9207C561.951 82.7062 560.38 83.4916 558.373 84.2771ZM558.766 76.5535C560.249 75.6807 561.951 74.4153 563.871 72.7571C565.791 71.0117 567.668 69.1353 569.5 67.128C571.333 65.0335 572.86 63.1135 574.082 61.368C575.566 59.3607 576.7 57.4844 577.486 55.7389C578.271 53.9935 578.838 52.3353 579.188 50.7644C578.838 49.8044 578.271 48.8007 577.486 47.7535C576.7 46.6189 576.002 46.008 575.391 45.9207C573.471 45.9207 571.42 47.1426 569.238 49.5862C567.144 51.9426 565.093 54.5171 563.086 57.3098C562.737 57.7462 562.257 58.4444 561.646 59.4044C561.035 60.3644 560.424 61.2807 559.813 62.1535C559.289 62.9389 558.94 63.4626 558.766 63.7244C558.504 64.0735 557.98 65.0771 557.195 66.7353C556.497 68.3062 555.798 69.9207 555.1 71.5789C554.402 73.1498 554.053 74.1971 554.053 74.7207C554.053 75.2444 554.097 75.8117 554.184 76.4226C554.358 77.0335 554.795 77.4262 555.493 77.6007C556.191 77.7753 557.282 77.4262 558.766 76.5535Z" fill="#212843"/>
<path d="M622.828 86.7644C622.479 86.7644 621.956 86.7207 621.257 86.6335C620.647 86.4589 620.123 86.0662 619.687 85.4553C618.377 83.8844 617.548 82.5753 617.199 81.528C616.85 80.4807 616.807 78.9535 617.068 76.9462C617.243 75.6371 617.33 74.5026 617.33 73.5425C617.417 72.4953 617.505 71.6226 617.592 70.9244C617.243 70.5753 616.588 70.8371 615.628 71.7098C614.756 72.4953 613.534 73.4989 611.963 74.7207C608.996 78.1244 606.334 80.7426 603.977 82.5753C601.708 84.3207 599.657 85.4989 597.825 86.1098C595.992 86.6335 594.247 86.808 592.588 86.6335C591.105 86.4589 589.927 85.848 589.054 84.8007C588.181 83.6662 587.614 82.2262 587.352 80.4807C587.177 78.7353 587.177 76.8589 587.352 74.8516C587.701 71.9716 588.312 69.2226 589.185 66.6044C590.145 63.9862 591.672 61.0626 593.767 57.8335C594.727 56.088 595.992 54.3862 597.563 52.728C599.221 50.9826 601.01 49.4553 602.93 48.1462C604.937 46.7498 606.857 45.7462 608.69 45.1353C610.697 44.3498 612.748 43.9135 614.843 43.8262C616.937 43.6516 618.814 43.8262 620.472 44.3498C621.519 44.8735 622.348 45.1353 622.959 45.1353C623.657 45.1353 624.181 44.6989 624.53 43.8262C624.967 43.128 625.403 42.0807 625.839 40.6844C626.276 39.2007 626.799 37.9353 627.41 36.888L630.29 28.3789C631.25 26.0226 632.297 23.5353 633.432 20.9171C634.567 18.2989 635.919 15.1135 637.49 11.3607C638.974 8.568 640.196 6.95346 641.156 6.5171C642.116 5.99346 643.207 6.34255 644.428 7.56437C645.388 8.69891 645.737 10.008 645.476 11.4916C645.214 12.888 644.428 15.1571 643.119 18.2989C642.508 19.2589 641.985 20.1753 641.548 21.048C641.112 21.8335 640.501 23.0989 639.716 24.8444C638.581 27.5498 637.534 29.9935 636.574 32.1753C635.614 34.2698 634.61 36.6698 633.563 39.3753C633.214 40.7716 632.734 42.3862 632.123 44.2189C631.599 46.0516 631.163 47.7098 630.814 49.1935C630.552 50.5898 630.247 51.8989 629.897 53.1207C629.636 54.2553 629.33 54.8226 628.981 54.8226C628.283 55.608 627.628 57.0044 627.017 59.0116C626.406 60.9316 625.883 62.9389 625.446 65.0335C625.097 67.128 624.792 68.8735 624.53 70.2698C624.356 71.3171 624.225 72.6698 624.137 74.328C624.05 75.9862 624.006 77.6007 624.006 79.1716C624.006 80.6553 624.006 81.7026 624.006 82.3135C624.006 84.2335 623.963 85.4553 623.876 85.9789C623.788 86.5026 623.439 86.7644 622.828 86.7644ZM594.945 78.5171C596.777 78.5171 598.697 77.7316 600.705 76.1607C602.799 74.5898 604.894 72.8444 606.988 70.9244C608.297 69.7026 609.694 68.088 611.177 66.0807C612.748 64.0735 614.232 62.0662 615.628 60.0589C617.112 58.0516 618.29 56.3062 619.163 54.8226C620.036 53.2516 620.472 52.2916 620.472 51.9426C620.472 51.5062 620.079 51.2007 619.294 51.0262C618.508 50.8516 617.592 50.7644 616.545 50.7644C615.585 50.6771 614.799 50.7207 614.188 50.8953C612.268 51.3316 610.348 52.2044 608.428 53.5135C606.596 54.8226 604.588 56.7862 602.406 59.4044C600.137 62.1971 598.261 65.0771 596.777 68.0444C595.381 71.0117 594.508 73.4989 594.159 75.5062C593.81 77.5135 594.072 78.5171 594.945 78.5171Z" fill="#212843"/>
<path d="M643.457 87.288C642.322 87.3753 641.406 87.288 640.708 87.0262C640.009 86.6771 639.137 86.1971 638.089 85.5862C636.169 84.1026 634.729 82.6189 633.769 81.1353C632.897 79.5644 632.504 78.0371 632.591 76.5535C632.766 75.768 632.766 75.0698 632.591 74.4589C632.504 73.848 632.46 73.5425 632.46 73.5425C631.937 73.1062 631.762 72.8444 631.937 72.7571C632.111 72.5826 632.242 72.3207 632.329 71.9716C633.028 71.7971 633.115 71.3171 632.591 70.5316C632.329 69.8335 632.46 68.2626 632.984 65.8189C633.595 63.288 634.38 60.9316 635.34 58.7498C635.777 57.7898 636.388 56.5244 637.173 54.9535C638.046 53.3825 639.006 51.8116 640.053 50.2407C641.1 48.5826 642.06 47.2735 642.933 46.3135C644.853 44.1316 646.555 42.5171 648.039 41.4698C649.609 40.3353 651.355 39.4189 653.275 38.7207C655.02 38.0226 656.286 37.6298 657.071 37.5426C657.857 37.4553 658.948 37.9789 660.344 39.1135C662.439 39.7244 664.009 40.5971 665.057 41.7316C666.191 42.7789 667.064 44.4371 667.675 46.7062C668.373 49.2371 668.591 52.248 668.329 55.7389C668.155 59.1426 666.671 63.5498 663.879 68.9607C662.22 72.3644 660.562 74.9389 658.904 76.6844C657.333 78.4298 655.413 80.2626 653.144 82.1826C651.486 83.5789 649.958 84.6698 648.562 85.4553C647.166 86.2407 645.464 86.8516 643.457 87.288ZM653.929 71.7098C655.675 69.0916 657.028 66.6916 657.988 64.5098C659.035 62.2407 659.864 59.4044 660.475 56.0007C660.649 55.0407 660.693 53.8626 660.606 52.4662C660.519 50.9826 660.3 49.6298 659.951 48.408C659.689 47.1862 659.297 46.5316 658.773 46.4444C657.639 46.008 656.373 46.008 654.977 46.4444C653.58 46.7935 652.053 47.8407 650.395 49.5862C648.911 51.3316 647.559 53.2953 646.337 55.4771C645.202 57.6589 644.155 60.0589 643.195 62.6771C642.235 65.2953 641.319 68.088 640.446 71.0553C639.573 74.3716 639.617 76.9025 640.577 78.648C641.624 80.3935 643.326 80.8298 645.682 79.9571C648.039 78.9971 650.788 76.248 653.929 71.7098Z" fill="#212843"/>
<path d="M680.408 87.0822C678.268 87.9478 676.465 88.3806 675.001 88.3806C673.65 88.2569 672.129 87.515 670.44 86.1548C668.3 83.929 667.567 81.7033 668.243 79.4775C669.032 77.128 670.89 74.8404 673.819 72.6147C675.846 71.2545 677.31 70.5125 678.211 70.3889C679.225 70.2652 680.745 70.698 682.773 71.6873C686.152 74.0367 687.616 76.6334 687.165 79.4775C686.828 82.3215 684.575 84.8564 680.408 87.0822Z" fill="#0034FF"/>
</svg>
